ply
format ascii 1.0
element vertex 21
property float x
property float y
element face 22
property list uchar int vertex_index
end_header
0 0
0 1
0 2
0 3
1 0
1 1
1 2
1 3
1.29394 1.57273
1.31212 1.85152
1.43939 2.51818
1.49394 1.79697
2 0
2 1
2 2
2 3
2.5 1.43939
3 0
3 1
3 2
3 3
4 0 1 5 4 
4 4 5 13 12 
4 12 13 18 17 
4 1 2 6 5 
4 2 3 7 6 
4 14 15 20 19 
3 10 6 7 
3 10 7 15 
3 10 15 14 
3 10 14 6 
3 16 13 14 
3 16 14 19 
3 16 19 18 
3 16 18 13 
3 8 5 6 
3 8 14 13 
3 8 13 5 
3 9 8 6 
3 9 6 14 
3 11 9 14 
3 11 14 8 
3 11 8 9 
