ply
format ascii 1.0
element vertex 18
property float x
property float y
element face 24
property list uchar int vertex_index
end_header
0 0
0 1
0 2
0.454545 1.21414
0.5 0.5
0.5 1.5
0.765657 1.30707
0.793939 1.50505
0.814141 1.31919
1 0
1 1
1 2
1.5 0.5
1.5 1.5
1.50101 0.789899
2 0
2 1
2 2
3 0 1 4 
3 1 10 4 
3 10 9 4 
3 9 0 4 
3 9 10 12 
3 1 2 5 
3 2 11 5 
3 10 11 13 
3 11 17 13 
3 17 16 13 
3 16 10 13 
3 7 11 10 
3 7 5 11 
3 14 10 16 
3 14 16 12 
3 14 12 10 
3 8 7 10 
3 8 5 7 
3 6 8 10 
3 6 10 5 
3 6 5 8 
3 5 1 10 
3 5 1 10 
3 5 1 10 
